<?xml version="1.0" standalone="no"?>
<!DOCTYPE svg PUBLIC "-//W3C//DTD SVG 20010904//EN"
 "http://www.w3.org/TR/2001/REC-SVG-20010904/DTD/svg10.dtd">
<svg version="1.0" xmlns="http://www.w3.org/2000/svg"
 width="412.000000pt" height="412.000000pt" viewBox="0 0 412.000000 412.000000"
 preserveAspectRatio="xMidYMid meet">
<metadata>
Created by potrace 1.14, written by Peter Selinger 2001-2017
</metadata>
<g transform="translate(0.000000,412.000000) scale(0.100000,-0.100000)"
fill="#000000" stroke="none">
<path d="M30 2065 l0 -2025 2030 0 2030 0 0 2025 0 2025 -2030 0 -2030 0 0
-2025z m3280 1666 c14 -9 33 -34 44 -55 17 -35 17 -40 2 -81 -10 -24 -27 -50
-39 -58 -87 -56 -197 -1 -197 98 0 98 109 154 190 96z m-546 -22 c79 -29 165
-110 202 -191 l29 -63 3 -500 c1 -275 1 -590 0 -700 l-3 -200 -22 48 c-36 79
-126 209 -193 280 -120 129 -296 242 -463 297 l-68 22 3 376 3 377 27 57 c87
187 290 269 482 197z m-601 -1074 c16 -7 17 -36 17 -411 0 -222 -3 -404 -6
-404 -3 0 -21 12 -40 26 -134 103 -343 55 -419 -96 -97 -190 39 -414 250 -414
65 0 150 30 181 65 9 10 21 19 26 19 4 0 7 -183 6 -407 l-3 -407 -30 -9 c-16
-5 -97 -9 -180 -9 -129 0 -163 3 -247 25 -114 30 -240 87 -338 153 -95 64
-244 221 -302 320 -239 407 -182 910 141 1247 149 155 321 252 531 298 68 15
116 18 240 15 85 -2 163 -6 173 -11z m185 -56 c304 -121 531 -380 620 -707
l26 -97 4 -572 3 -573 -375 0 -376 0 0 990 c0 704 3 990 11 990 6 0 45 -14 87
-31z"/>
<path d="M3185 3695 c-17 -16 -25 -35 -25 -60 0 -63 70 -107 120 -75 13 8 12
10 -2 10 -10 0 -18 6 -18 14 0 7 -7 19 -15 26 -13 11 -15 8 -15 -14 0 -20 -5
-26 -20 -26 -19 0 -21 5 -18 63 l3 62 35 3 c46 4 79 -20 64 -45 -8 -13 -8 -26
1 -47 15 -35 27 -21 27 32 0 72 -87 108 -137 57z"/>
<path d="M3230 3655 c0 -9 6 -12 15 -9 8 4 12 10 9 15 -8 14 -24 10 -24 -6z"/>
</g>
</svg>
